<svg data-v-d3f97b9e="" xmlns="http://www.w3.org/2000/svg" viewBox="0 0 367 90"><!----><!----><!----><g data-v-d3f97b9e="" id="eada81ff-d34f-4e93-982b-38c4509ed4dd" fill="white" transform="matrix(5.287435531616211,0,0,5.287435531616211,108.37581634521484,0.19104927778244019)"><path d="M7.60 14L5.87 14L4.14 9.98L2.81 9.98L2.81 14L1.25 14L1.25 4.20L4.66 4.20L4.66 4.20Q5.89 4.20 6.73 4.75L6.73 4.75L6.73 4.75Q7.57 5.31 7.57 7.01L7.57 7.01L7.57 7.01Q7.57 9.39 5.75 9.86L5.75 9.86L7.60 14ZM2.81 5.53L2.81 8.65L4.70 8.65L4.70 8.65Q5.18 8.65 5.45 8.52L5.45 8.52L5.45 8.52Q5.73 8.39 5.86 8.03L5.86 8.03L5.86 8.03Q5.99 7.67 5.99 7.03L5.99 7.03L5.99 7.03Q5.99 6.20 5.67 5.87L5.67 5.87L5.67 5.87Q5.35 5.53 4.66 5.53L4.66 5.53L2.81 5.53ZM12.64 14.15L12.64 14.15Q11.23 14.15 10.29 13.27L10.29 13.27L10.29 13.27Q9.35 12.38 9.35 10.49L9.35 10.49L9.35 10.49Q9.35 9.21 9.81 8.39L9.81 8.39L9.81 8.39Q10.26 7.57 11.00 7.20L11.00 7.20L11.00 7.20Q11.75 6.83 12.64 6.83L12.64 6.83L12.64 6.83Q13.54 6.83 14.27 7.20L14.27 7.20L14.27 7.20Q15.01 7.57 15.46 8.39L15.46 8.39L15.46 8.39Q15.92 9.21 15.92 10.49L15.92 10.49L15.92 10.49Q15.92 11.77 15.46 12.59L15.46 12.59L15.46 12.59Q15.01 13.41 14.27 13.78L14.27 13.78L14.27 13.78Q13.54 14.15 12.64 14.15L12.64 14.15ZM12.64 12.81L12.64 12.81Q13.30 12.81 13.78 12.27L13.78 12.27L13.78 12.27Q14.27 11.73 14.27 10.49L14.27 10.49L14.27 10.49Q14.27 9.25 13.78 8.71L13.78 8.71L13.78 8.71Q13.30 8.18 12.64 8.18L12.64 8.18L12.64 8.18Q11.97 8.18 11.49 8.71L11.49 8.71L11.49 8.71Q11.00 9.24 11.00 10.49L11.00 10.49L11.00 10.49Q11.00 11.73 11.49 12.27L11.49 12.27L11.49 12.27Q11.97 12.81 12.64 12.81L12.64 12.81ZM21.52 6.85L21.52 6.85Q22.92 6.85 23.63 7.73L23.63 7.73L23.63 7.73Q24.35 8.61 24.35 10.49L24.35 10.49L24.35 10.49Q24.35 12.35 23.57 13.25L23.57 13.25L23.57 13.25Q22.79 14.15 21.38 14.15L21.38 14.15L21.38 14.15Q20.19 14.15 19.45 13.20L19.45 13.20L19.18 14L17.95 14L17.95 2.80L19.52 2.80L19.52 7.71L19.52 7.71Q19.88 7.31 20.39 7.08L20.39 7.08L20.39 7.08Q20.90 6.85 21.52 6.85L21.52 6.85ZM21.07 12.81L21.07 12.81Q21.97 12.81 22.37 12.26L22.37 12.26L22.37 12.26Q22.78 11.70 22.78 10.49L22.78 10.49L22.78 10.49Q22.78 9.24 22.44 8.71L22.44 8.71L22.44 8.71Q22.09 8.19 21.21 8.19L21.21 8.19L21.21 8.19Q20.59 8.19 20.17 8.55L20.17 8.55L20.17 8.55Q19.74 8.92 19.52 9.42L19.52 9.42L19.52 11.65L19.52 11.65Q19.68 12.14 20.09 12.47L20.09 12.47L20.09 12.47Q20.50 12.81 21.07 12.81L21.07 12.81ZM31.12 8.82L31.12 8.82Q31.12 8.76 31.61 8.97L31.61 8.97L31.61 8.97Q32.10 9.17 32.49 9.70L32.49 9.70L32.49 9.70Q32.89 10.23 32.89 11.20L32.89 11.20L32.89 11.20Q32.89 12.60 32.22 13.30L32.22 13.30L32.22 13.30Q31.56 14 30.30 14L30.30 14L26.39 14L26.39 4.20L29.58 4.20L29.58 4.20Q30.35 4.20 30.95 4.35L30.95 4.35L30.95 4.35Q31.54 4.49 31.97 5.03L31.97 5.03L31.97 5.03Q32.40 5.56 32.40 6.59L32.40 6.59L32.40 6.59Q32.40 7.49 32.12 7.98L32.12 7.98L32.12 7.98Q31.84 8.47 31.48 8.67L31.48 8.67L31.48 8.67Q31.12 8.88 31.12 8.82L31.12 8.82ZM27.96 5.53L27.96 8.29L29.61 8.29L29.61 8.29Q30.23 8.29 30.49 7.93L30.49 7.93L30.49 7.93Q30.74 7.57 30.74 6.79L30.74 6.79L30.74 6.79Q30.74 6.27 30.63 6.01L30.63 6.01L30.63 6.01Q30.52 5.74 30.27 5.63L30.27 5.63L30.27 5.63Q30.02 5.53 29.55 5.53L29.55 5.53L27.96 5.53ZM29.93 12.67L29.93 12.67Q30.51 12.67 30.80 12.51L30.80 12.51L30.80 12.51Q31.09 12.35 31.20 12.02L31.20 12.02L31.20 12.02Q31.30 11.69 31.30 11.14L31.30 11.14L31.30 11.14Q31.30 10.29 30.95 9.95L30.95 9.95L30.95 9.95Q30.59 9.60 29.93 9.60L29.93 9.60L27.96 9.60L27.96 12.67L29.93 12.67ZM37.84 14.15L37.84 14.15Q36.43 14.15 35.49 13.27L35.49 13.27L35.49 13.27Q34.55 12.38 34.55 10.49L34.55 10.49L34.55 10.49Q34.55 9.21 35.01 8.39L35.01 8.39L35.01 8.39Q35.46 7.57 36.20 7.20L36.20 7.20L36.20 7.20Q36.95 6.83 37.84 6.83L37.84 6.83L37.84 6.83Q38.74 6.83 39.47 7.20L39.47 7.20L39.47 7.20Q40.21 7.57 40.66 8.39L40.66 8.39L40.66 8.39Q41.12 9.21 41.12 10.49L41.12 10.49L41.12 10.49Q41.12 11.77 40.66 12.59L40.66 12.59L40.66 12.59Q40.21 13.41 39.47 13.78L39.47 13.78L39.47 13.78Q38.74 14.15 37.84 14.15L37.84 14.15ZM37.84 12.81L37.84 12.81Q38.50 12.81 38.98 12.27L38.98 12.27L38.98 12.27Q39.47 11.73 39.47 10.49L39.47 10.49L39.47 10.49Q39.47 9.25 38.98 8.71L38.98 8.71L38.98 8.71Q38.50 8.18 37.84 8.18L37.84 8.18L37.84 8.18Q37.17 8.18 36.69 8.71L36.69 8.71L36.69 8.71Q36.20 9.24 36.20 10.49L36.20 10.49L36.20 10.49Q36.20 11.73 36.69 12.27L36.69 12.27L36.69 12.27Q37.17 12.81 37.84 12.81L37.84 12.81ZM48.90 8.33L46.44 8.33L46.44 11.83L46.44 11.83Q46.44 12.45 46.63 12.67L46.63 12.67L46.63 12.67Q46.83 12.89 47.19 12.89L47.19 12.89L47.19 12.89Q47.66 12.89 48.47 12.71L48.47 12.71L48.47 14L48.47 14Q48.43 14 48.05 14.08L48.05 14.08L48.05 14.08Q47.67 14.15 46.90 14.15L46.90 14.15L46.90 14.15Q44.87 14.15 44.87 12.29L44.87 12.29L44.87 8.33L42.91 8.33L42.91 7L44.87 7L44.87 4.48L46.44 4.48L46.44 7L48.90 7L48.90 8.33Z"></path></g><!----><g data-v-d3f97b9e="" id="34d33444-e9fc-4832-9f57-7f7bda1d6c79" transform="matrix(1.0392422676086426,0,0,1.0392422676086426,-3.661332130432129,-6.262894630432129)" stroke="none" fill="white"><g data-name="Group"><path data-name="Compound Path" d="M36.4 57.3A8.4 8.4 0 0 0 28 49a8.3 8.3 0 0 0-8.3 8.3 8.4 8.4 0 0 0 8.3 8.4 8.5 8.5 0 0 0 8.4-8.4zm-10.7 0A2.3 2.3 0 0 1 28 55a2.3 2.3 0 0 1 2.4 2.3 2.4 2.4 0 0 1-2.4 2.4 2.3 2.3 0 0 1-2.3-2.4zM48.6 49a8.3 8.3 0 0 0-8.3 8.3 8.4 8.4 0 0 0 8.3 8.4 8.5 8.5 0 0 0 8.4-8.4 8.4 8.4 0 0 0-8.4-8.3zm0 10.7a2.3 2.3 0 0 1-2.3-2.4 2.3 2.3 0 0 1 2.3-2.3 2.3 2.3 0 0 1 2.4 2.3 2.4 2.4 0 0 1-2.4 2.4z"></path><path data-name="Compound Path" d="M71 40.1h24.7V6.7H49.6v29.8h-8.3V17.9h-6v18.6H10v13H4.3v22.7H10v21.1h56.6V72.2h5.8V49.5h-5.8V44zM55.6 12.7h34.1v21.4h-21l-6.4 5.7v-5.7h-6.7zm10.8 42.8v10.7h-5.8v21.1H16V66.2h-5.7V55.5H16v-13h40.3v10.6l4.3-3.8v6.2z"></path><path data-name="Compound Path" d="M27.2 84h22.3V69.2H27.2zm6-8.8h10.3V78H33.2z"></path></g></g><!----></svg>