<svg data-v-29081953="" xmlns="http://www.w3.org/2000/svg" viewBox="0 0 300 300"><!----><defs data-v-29081953=""><!----></defs><rect data-v-29081953="" fill="transparent" x="0" y="0" width="300px" height="300px" class="logo-background-square"></rect><!----><defs data-v-29081953=""><linearGradient data-v-29081953="" gradientTransform="rotate(25)" id="26aab3d3-ac88-457f-a46b-089fb43b09ba" x1="0%" y1="0%" x2="100%" y2="0%"><stop data-v-29081953="" offset="0%" stop-color="#5106FF" stop-opacity="1"></stop><stop data-v-29081953="" offset="100%" stop-color="#61CBF2" stop-opacity="1"></stop></linearGradient></defs><g data-v-29081953="" id="75abe686-02ea-4031-84d7-1fb419b9dd7f" fill="url(#26aab3d3-ac88-457f-a46b-089fb43b09ba)" stroke="none" transform="matrix(2.407043218612671,0,0,2.407043218612671,29.647833148132335,29.647833148132335)"><g data-name="Group"><path data-name="Compound Path" d="M36.4 57.3A8.4 8.4 0 0 0 28 49a8.3 8.3 0 0 0-8.3 8.3 8.4 8.4 0 0 0 8.3 8.4 8.5 8.5 0 0 0 8.4-8.4zm-10.7 0A2.3 2.3 0 0 1 28 55a2.3 2.3 0 0 1 2.4 2.3 2.4 2.4 0 0 1-2.4 2.4 2.3 2.3 0 0 1-2.3-2.4zM48.6 49a8.3 8.3 0 0 0-8.3 8.3 8.4 8.4 0 0 0 8.3 8.4 8.5 8.5 0 0 0 8.4-8.4 8.4 8.4 0 0 0-8.4-8.3zm0 10.7a2.3 2.3 0 0 1-2.3-2.4 2.3 2.3 0 0 1 2.3-2.3 2.3 2.3 0 0 1 2.4 2.3 2.4 2.4 0 0 1-2.4 2.4z"></path><path data-name="Compound Path" d="M71 40.1h24.7V6.7H49.6v29.8h-8.3V17.9h-6v18.6H10v13H4.3v22.7H10v21.1h56.6V72.2h5.8V49.5h-5.8V44zM55.6 12.7h34.1v21.4h-21l-6.4 5.7v-5.7h-6.7zm10.8 42.8v10.7h-5.8v21.1H16V66.2h-5.7V55.5H16v-13h40.3v10.6l4.3-3.8v6.2z"></path><path data-name="Compound Path" d="M27.2 84h22.3V69.2H27.2zm6-8.8h10.3V78H33.2z"></path></g></g><!----></svg>